<svg width="183" height="33" viewBox="0 0 183 33" fill="none" xmlns="http://www.w3.org/2000/svg">
<g clip-path="url(#clip0_35_2200)">
<path d="M41.3735 11.2078C41.3874 10.3832 41.3306 9.55893 41.2036 8.74406H45.0549C44.9372 9.55973 44.8898 10.384 44.9133 11.2078V19.3919C44.9905 20.0118 44.9291 20.6412 44.7335 21.2346C44.5379 21.8279 44.2129 22.3704 43.7821 22.8229C43.3513 23.2754 42.8254 23.6266 42.2423 23.8511C41.6593 24.0756 41.0337 24.1678 40.4106 24.1211C39.8223 24.1737 39.2296 24.096 38.6746 23.8936C38.1197 23.6912 37.6161 23.3691 37.1998 22.95C36.7835 22.531 36.4646 22.0254 36.2658 21.4691C36.067 20.9129 35.9932 20.3197 36.0496 19.7317V19.137L38.8814 18.3724C38.8814 18.3724 38.8814 19.4768 38.8814 19.5618C38.8814 20.4963 39.3345 21.091 40.0708 21.091C40.8071 21.091 41.2602 20.4963 41.2602 19.5618L41.3735 11.2078Z" fill="white"/>
<path d="M50.577 20.1848C50.836 20.1848 51.0924 20.2362 51.3314 20.3362C51.5703 20.4361 51.787 20.5826 51.9688 20.7671C52.1506 20.9515 52.2939 21.1703 52.3905 21.4106C52.487 21.651 52.5347 21.9081 52.531 22.1671C52.4731 22.6484 52.2409 23.0918 51.8783 23.4135C51.5156 23.7352 51.0476 23.9129 50.5628 23.9129C50.0781 23.9129 49.6101 23.7352 49.2474 23.4135C48.8847 23.0918 48.6525 22.6484 48.5947 22.1671C48.5947 21.6413 48.8035 21.1371 49.1753 20.7654C49.5471 20.3936 50.0513 20.1848 50.577 20.1848Z" fill="white"/>
<path d="M62.0743 23.8945C62.2203 23.0813 62.2961 22.257 62.3009 21.4308V11.2078C62.3148 10.3832 62.258 9.55893 62.131 8.74406H65.9823C65.8787 9.56109 65.8314 10.3843 65.8407 11.2078V20.8078H68.3044C69.1374 20.8184 69.9701 20.771 70.7965 20.6662V23.8945H62.0743Z" fill="white"/>
<path d="M82.8602 23.8945C82.7717 23.0668 82.6394 22.2444 82.4637 21.4308L82.2655 20.7795H78.6973C78.4631 21.8076 78.2835 22.8474 78.1593 23.8945H74.1947C74.5062 23.1016 74.8177 22.2803 75.0725 21.4308L77.9044 11.1795C78.1026 10.3865 78.3292 9.50867 78.4708 8.74406H82.4071C82.5582 9.56665 82.7567 10.3798 83.0017 11.1795L85.8336 21.4308C86.0728 22.2738 86.3758 23.0974 86.7398 23.8945H82.8602ZM79.292 18.2025H81.7274L80.5097 13.2184L79.292 18.2025Z" fill="white"/>
<path d="M96.7646 11.2078C96.7785 10.3832 96.7217 9.55893 96.5947 8.74406H100.219C100.163 9.56434 100.163 10.3875 100.219 11.2078V19.2219C100.232 19.8783 100.109 20.5302 99.8603 21.1376C99.6112 21.7449 99.2406 22.295 98.7711 22.7538C98.3017 23.2127 97.7433 23.5707 97.1304 23.8058C96.5175 24.0409 95.863 24.1482 95.2071 24.1211C94.5357 24.1868 93.8581 24.1073 93.2202 23.888C92.5822 23.6686 91.999 23.3145 91.5101 22.8498C91.0211 22.385 90.638 21.8205 90.3866 21.1945C90.1352 20.5685 90.0214 19.8958 90.0531 19.2219V11.2078C90.0624 10.3843 90.0151 9.56109 89.9115 8.74406H93.7628C93.7065 9.56434 93.7065 10.3875 93.7628 11.2078V19.2219C93.7327 19.446 93.7508 19.674 93.816 19.8905C93.8812 20.107 93.9919 20.3071 94.1407 20.4773C94.2896 20.6475 94.4731 20.7839 94.679 20.8774C94.8849 20.9709 95.1084 21.0192 95.3345 21.0192C95.5606 21.0192 95.7841 20.9709 95.99 20.8774C96.1959 20.7839 96.3794 20.6475 96.5283 20.4773C96.6771 20.3071 96.7879 20.107 96.853 19.8905C96.9182 19.674 96.9363 19.446 96.9062 19.2219L96.7646 11.2078Z" fill="white"/>
<path d="M104.92 23.8945C105.024 23.0775 105.071 22.2543 105.062 21.4308V11.2078C105.071 10.3843 105.024 9.56109 104.92 8.74406H110.159C110.827 8.73283 111.491 8.85377 112.112 9.09994C112.733 9.3461 113.3 9.71264 113.779 10.1785C114.258 10.6443 114.64 11.2002 114.903 11.8143C115.167 12.4283 115.306 13.0884 115.313 13.7565C115.327 14.5422 115.149 15.3196 114.794 16.0205C114.438 16.7215 113.917 17.3248 113.274 17.7777L115.002 21.4025C115.409 22.263 115.872 23.0955 116.389 23.8945H112C111.721 23.0482 111.4 22.2165 111.037 21.4025L109.819 18.5706H108.602V21.4025C108.545 22.2227 108.545 23.0459 108.602 23.8662L104.92 23.8945ZM108.602 11.8874V15.5972H109.933C110.174 15.6011 110.414 15.556 110.638 15.4645C110.861 15.3731 111.064 15.2372 111.233 15.065C111.403 14.8929 111.535 14.6882 111.623 14.4633C111.711 14.2383 111.753 13.9979 111.745 13.7565C111.753 13.5137 111.711 13.2719 111.624 13.0455C111.536 12.819 111.404 12.6125 111.235 12.4381C111.066 12.2638 110.863 12.1252 110.64 12.0306C110.416 11.936 110.176 11.8873 109.933 11.8874H108.602Z" fill="white"/>
<path d="M123.781 21.4308C123.767 22.2554 123.823 23.0796 123.95 23.8945H120.099C120.203 23.0775 120.25 22.2543 120.241 21.4308V11.2078C120.25 10.3843 120.203 9.56109 120.099 8.74406H123.95C123.823 9.55893 123.767 10.3832 123.781 11.2078V21.4308Z" fill="white"/>
<path d="M135.221 21.4308C135.151 22.2505 135.151 23.0748 135.221 23.8945H131.512C131.639 23.0796 131.695 22.2554 131.681 21.4308V11.8874H130.605C129.776 11.8178 128.943 11.8178 128.113 11.8874V8.74406H138.761V12.029C137.932 11.9578 137.098 11.9578 136.269 12.029H135.25L135.221 21.4308Z" fill="white"/>
<path d="M150.088 20.8078C150.921 20.8163 151.754 20.769 152.581 20.6662V23.8945H142.442V21.0626L148.106 11.9441H145.274C144.455 11.8736 143.63 11.8736 142.811 11.9441V8.74406H152.269V11.5759L146.605 20.7228L150.088 20.8078Z" fill="white"/>
<path d="M160.765 14.7193H164.729V17.5511H160.765V20.8078H164.248C165.081 20.8179 165.913 20.7706 166.74 20.6662V23.8945H157.055C157.125 23.0748 157.125 22.2505 157.055 21.4308V11.2078C157.125 10.3881 157.125 9.56379 157.055 8.74406H166.372V12.029C165.543 11.9578 164.709 11.9578 163.88 12.029H160.765V14.7193Z" fill="white"/>
<path d="M174.584 15.229V21.4308C174.575 22.2543 174.622 23.0775 174.726 23.8945H171.044C171.148 23.0775 171.195 22.2543 171.186 21.4308V11.2078C171.195 10.3843 171.148 9.56109 171.044 8.74406H174.527L178.69 17.5511V11.2078C178.667 10.3799 178.572 9.55564 178.407 8.74406H182.089C181.961 9.55893 181.905 10.3832 181.919 11.2078V23.8945H178.747L174.584 15.229Z" fill="white"/>
<path d="M12.7717 6.96V10.8963C12.7717 11.3494 12.7717 11.8591 12.0354 11.8591C11.8525 11.8593 11.6765 11.7886 11.5446 11.6619C11.4126 11.5352 11.3348 11.3623 11.3275 11.1795C11.3207 11.0362 11.3614 10.8946 11.4434 10.7768C11.5253 10.6591 11.6438 10.5716 11.7805 10.5281C11.7921 10.3748 11.7723 10.2206 11.7224 10.0751C11.6725 9.92964 11.5934 9.79585 11.4901 9.68191C11.3867 9.56797 11.2613 9.47627 11.1213 9.41241C10.9814 9.34854 10.8299 9.31385 10.6761 9.31044C10.4989 9.3104 10.3235 9.34574 10.1602 9.41439C9.9968 9.48304 9.8488 9.58362 9.72483 9.71023C9.60086 9.83684 9.50342 9.98693 9.43822 10.1517C9.37302 10.3165 9.34138 10.4926 9.34515 10.6697C9.34515 12.0857 10.6195 12.7653 12.177 12.7653C13.7345 12.7653 15.2637 12.1706 15.2637 10.783V6.96C15.2239 6.64759 15.2833 6.33056 15.4336 6.0538H12.6018C12.7486 6.3318 12.8078 6.64771 12.7717 6.96Z" fill="white"/>
<path d="M10.5628 25.622H16.2265V23.2149H15.9433C15.7427 23.6576 15.4316 24.0413 15.0398 24.329C14.6479 24.6166 14.1887 24.7986 13.7062 24.8574C13.6419 24.8615 13.5774 24.8519 13.5171 24.8292C13.4568 24.8065 13.4021 24.7711 13.3565 24.7256C13.311 24.68 13.2756 24.6253 13.2529 24.565C13.2302 24.5047 13.2206 24.4402 13.2248 24.3759V20.0715C13.1808 19.7681 13.2406 19.4587 13.3947 19.1936H10.5628C10.6503 19.4797 10.6503 19.7854 10.5628 20.0715V24.7441C10.6425 25.0313 10.6425 25.3347 10.5628 25.622Z" fill="white"/>
<path d="M23.9859 5.40248C22.5041 5.23574 21.0801 4.73202 19.823 3.92992C17.8209 2.68979 15.493 2.07822 13.1398 2.17417C10.8567 2.18302 8.61403 2.77782 6.62657 3.9016C5.29866 4.73348 3.79643 5.24715 2.23719 5.40248C1.94603 5.44392 1.65047 5.44392 1.35931 5.40248V17.5512C1.3936 20.8305 2.60017 23.9893 4.76085 26.4564C6.92152 28.9235 9.89367 30.5361 13.1398 31.0025C16.3809 30.5299 19.3463 28.9147 21.5013 26.4482C23.6562 23.9817 24.8588 20.8263 24.8921 17.5512V5.28921C24.597 5.37049 24.2918 5.40864 23.9859 5.40248ZM23.2213 17.5512C23.2733 20.3824 22.263 23.1305 20.3894 25.2538C18.4494 27.3056 15.9306 28.7181 13.1682 29.3034C10.3971 28.7364 7.86666 27.3329 5.91861 25.2821C4.00306 23.169 2.96945 20.4026 3.03011 17.5512H23.2213ZM23.2213 14.2945H3.03011V7.01664C4.58289 6.73208 6.07051 6.16583 7.41949 5.34585C9.14824 4.36667 11.0966 3.84063 13.0832 3.81664C15.087 3.76883 17.0593 4.32108 18.7469 5.40248C20.0849 6.19133 21.5517 6.73777 23.0797 7.01664L23.2213 14.2945Z" fill="white"/>
</g>
<defs>
<clipPath id="clip0_35_2200">
<rect width="182.857" height="32" fill="white" transform="translate(0 0.559998)"/>
</clipPath>
</defs>
</svg>
